<?xml version="1.0" encoding="UTF-8" standalone="no"?>
<svg
   version="1.1"
   width="45"
   height="45"
   viewBox="0 0 24 24"
   id="svg4"
   sodipodi:docname="target.svg"
   inkscape:version="1.1.1 (3bf5ae0d25, 2021-09-20)"
   xmlns:inkscape="http://www.inkscape.org/namespaces/inkscape"
   xmlns:sodipodi="http://sodipodi.sourceforge.net/DTD/sodipodi-0.dtd"
   xmlns="http://www.w3.org/2000/svg"
   xmlns:svg="http://www.w3.org/2000/svg">
  <defs
     id="defs8" />
  <sodipodi:namedview
     id="namedview6"
     pagecolor="#ffffff"
     bordercolor="#666666"
     borderopacity="1.0"
     inkscape:pageshadow="2"
     inkscape:pageopacity="0.0"
     inkscape:pagecheckerboard="0"
     showgrid="false"
     inkscape:zoom="29.958333"
     inkscape:cx="12"
     inkscape:cy="11.98331"
     inkscape:window-width="1280"
     inkscape:window-height="962"
     inkscape:window-x="-8"
     inkscape:window-y="-8"
     inkscape:window-maximized="1"
     inkscape:current-layer="svg4" />
  <path
     d="M11,2V4.07C7.38,4.53 4.53,7.38 4.07,11H2V13H4.07C4.53,16.62 7.38,19.47 11,19.93V22H13V19.93C16.62,19.47 19.47,16.62 19.93,13H22V11H19.93C19.47,7.38 16.62,4.53 13,4.07V2M11,6.08V8H13V6.09C15.5,6.5 17.5,8.5 17.92,11H16V13H17.91C17.5,15.5 15.5,17.5 13,17.92V16H11V17.91C8.5,17.5 6.5,15.5 6.08,13H8V11H6.09C6.5,8.5 8.5,6.5 11,6.08M12,11A1,1 0 0,0 11,12A1,1 0 0,0 12,13A1,1 0 0,0 13,12A1,1 0 0,0 12,11Z"
     id="path2" fill="#999" />
  <ellipse
     style="fill:#ff0000;fill-rule:evenodd;stroke-width:1.21732"
     id="path617"
     cx="12.066759"
     cy="12.133519"
     rx="1.1515994"
     ry="1.1849792" />
</svg>
